<svg xmlns="http://www.w3.org/2000/svg" width="248.316" height="107.597" viewBox="0 0 248.316 107.597">
  <g id="LOGO" transform="translate(-93.291 -67.416)">
    <g id="Groupe_7" data-name="Groupe 7" transform="translate(93.291 67.416)">
      <path id="Tracé_25" data-name="Tracé 25" d="M278.334,547.378c.361.089.722.176,1.086.257C279.179,547.214,279.16,547.25,278.334,547.378Z" transform="translate(-237.484 -441.353)" fill="#fff"/>
      <path id="Tracé_26" data-name="Tracé 26" d="M277.923,545.566l.081.02a4.724,4.724,0,0,1,.144-.591Z" transform="translate(-237.163 -439.564)" fill="#fff"/>
      <path id="Tracé_27" data-name="Tracé 27" d="M278.288,547.674l.01,0-.009,0Z" transform="translate(-237.448 -441.648)" fill="#fff"/>
      <path id="Tracé_28" data-name="Tracé 28" d="M283.256,548.85l0,0h0Z" transform="translate(-241.317 -442.565)" fill="#fff"/>
      <path id="Tracé_29" data-name="Tracé 29" d="M147.089,67.416a53.8,53.8,0,0,0-20.28,103.639,59.392,59.392,0,0,0,3.256-17.59v0c-41.757-21.752,2.526-66.1,33.913-72.635,20.012,19.6,21.91,86.511-19.3,78.014l17-27c.746-.895-.649-2.246-1.788-2.5l-10.924-3.6a1.606,1.606,0,0,1-1.065-2.017l8.547-27.65c.562-1.514-.451-2.69-1.645-1.558l-23.379,33.293a1.549,1.549,0,0,0,.708,2.564l14.723,4.542c1.937.968,1.233,2.049.968,2.9l-5.967,15.426-1.7,4.408-5.864,15.161c0,.011-.006.021-.009.032a4.735,4.735,0,0,0-.144.591l.009,0c.826-.128.845-.164,1.086.257h0A53.8,53.8,0,1,0,147.089,67.416Z" transform="translate(-93.291 -67.416)" fill="#1ba383"/>
    </g>
    <g id="Groupe_8" data-name="Groupe 8" transform="translate(215.214 83.947)">
      <path id="Tracé_30" data-name="Tracé 30" d="M671.047,162.584c.061,8.6-5.286,13.3-12.625,13.255a14.208,14.208,0,0,1-8.924-3.09.8.8,0,0,1-.346-.569,1.146,1.146,0,0,1,.244-.569l1.626-2.358a.819.819,0,0,1,.691-.407,1.241,1.241,0,0,1,.691.244,11.109,11.109,0,0,0,6.546,1.789,6.511,6.511,0,0,0,6.648-6.79v-.081a9.862,9.862,0,0,1-7.725,3.476A12.253,12.253,0,0,1,645.574,155c0-6.709,5.529-12.706,12.3-12.706a10.545,10.545,0,0,1,7.989,3.578l.346-2.3c.1-.732.325-1,.955-1h3.151q.732,0,.732.854Zm-12.807-15.247a7.732,7.732,0,1,0,7.542,7.725A7.431,7.431,0,0,0,658.239,147.338Z" transform="translate(-645.574 -142.296)" fill="#1ba383"/>
      <path id="Tracé_31" data-name="Tracé 31" d="M783.847,143.505c0-.549.264-.833.772-.833h2.805c.671,0,1.057.122,1.2.915l.386,2.135a6.794,6.794,0,0,1,5.9-3.334,10.194,10.194,0,0,1,6.526,2.724,1.147,1.147,0,0,1,.448.793.909.909,0,0,1-.224.549l-1.829,2.582a.616.616,0,0,1-.528.325,1.07,1.07,0,0,1-.61-.244,7.665,7.665,0,0,0-4.391-1.586c-2.5,0-4.879,1.85-4.879,5.59v13.641a.692.692,0,0,1-.793.813h-4.005c-.508,0-.772-.264-.772-.813Z" transform="translate(-753.321 -142.367)" fill="#1ba383"/>
      <path id="Tracé_32" data-name="Tracé 32" d="M880.529,160.882a.923.923,0,0,1,.529-.183.521.521,0,0,1,.468.244l1.992,2.44a.971.971,0,0,1,.244.589.8.8,0,0,1-.305.59,12.839,12.839,0,0,1-21.752-9.169,12.579,12.579,0,0,1,12.625-12.828,12.363,12.363,0,0,1,10.449,5.712,12.915,12.915,0,0,1,1.85,7.115c-.1,1.952-.468,1.972-1.993,1.992H867.152a7.465,7.465,0,0,0,7.359,5.855,7.765,7.765,0,0,0,5.428-1.911Zm-13.153-8.193H881.3c-1.118-3.049-3.538-5.367-6.932-5.367A7.675,7.675,0,0,0,867.376,152.689Z" transform="translate(-813.989 -142.505)" fill="#1ba383"/>
      <path id="Tracé_33" data-name="Tracé 33" d="M1006.555,160.882a.923.923,0,0,1,.529-.183.521.521,0,0,1,.468.244l1.992,2.44a.97.97,0,0,1,.244.589.8.8,0,0,1-.305.59,12.839,12.839,0,0,1-21.752-9.169,12.579,12.579,0,0,1,12.624-12.828,12.363,12.363,0,0,1,10.449,5.712,12.913,12.913,0,0,1,1.85,7.115c-.1,1.952-.468,1.972-1.992,1.992H993.178a7.465,7.465,0,0,0,7.359,5.855,7.764,7.764,0,0,0,5.428-1.911ZM993.4,152.689h13.926c-1.118-3.049-3.537-5.367-6.932-5.367A7.675,7.675,0,0,0,993.4,152.689Z" transform="translate(-912.193 -142.505)" fill="#1ba383"/>
      <path id="Tracé_34" data-name="Tracé 34" d="M1123.731,167.026c0,.508-.529.833-1.118.833h-3.6a.742.742,0,0,1-.834-.833V143.77a.742.742,0,0,1,.834-.833h2.643a1.247,1.247,0,0,1,1.159,1l.325,2.805a9.252,9.252,0,0,1,7.766-3.985c4.411-.061,9.433,3.476,9.331,10.531v13.763c0,.549-.264.813-.772.813h-3.924a.728.728,0,0,1-.834-.813v-13.58a5.5,5.5,0,0,0-5.529-5.469,5.686,5.686,0,0,0-5.448,5.733Z" transform="translate(-1013.847 -142.652)" fill="#1ba383"/>
      <path id="Tracé_35" data-name="Tracé 35" d="M647.876,332.613a.814.814,0,0,1,.915-.874h4.127a1.013,1.013,0,0,1,.894.732,8.13,8.13,0,0,1,.244.874l.427,1.667a9.045,9.045,0,0,1,7.258-3.537c6.526-.1,11.913,5.225,11.811,12.685.1,6.932-4.777,12.787-11.71,12.787a9.225,9.225,0,0,1-6.505-2.561v8.986a.767.767,0,0,1-.874.874h-5.672a.814.814,0,0,1-.915-.874Zm12.706,17.727a5.84,5.84,0,0,0,6.018-6.1c0-3.72-2.358-6.2-6.1-6.2-3.212,0-5.794,3.192-5.733,6.2A5.848,5.848,0,0,0,660.582,350.34Z" transform="translate(-647.368 -289.71)" fill="#298871"/>
      <path id="Tracé_36" data-name="Tracé 36" d="M788.776,331.572a12.777,12.777,0,1,1-12.848,12.767A12.784,12.784,0,0,1,788.776,331.572Zm-.1,18.967h.1c3.273.061,5.713-2.948,5.672-6.2.061-3.253-2.318-6.18-5.55-6.18h-.2a5.888,5.888,0,0,0-5.611,6.18C783.023,347.591,785.442,350.539,788.675,350.539Z" transform="translate(-747.151 -289.787)" fill="#298871"/>
      <path id="Tracé_37" data-name="Tracé 37" d="M920.543,317.163l10.246,13.316a1.147,1.147,0,0,1,.244.691.786.786,0,0,1-.854.793h-6.465c-.549,0-.833-.2-1.26-.854l-6.546-9.128-2.277,2.358v6.79a.742.742,0,0,1-.833.833h-5.774a.742.742,0,0,1-.833-.833V300.635a.742.742,0,0,1,.833-.833H912.8a.742.742,0,0,1,.833.833v14.942l7.034-7.888a1.661,1.661,0,0,1,1.525-.63h5.773a.948.948,0,0,1,1.057.874.739.739,0,0,1-.224.529Z" transform="translate(-848.656 -265.031)" fill="#298871"/>
      <path id="Tracé_38" data-name="Tracé 38" d="M1040.525,348.619a.713.713,0,0,1,.569.285l2.5,3.456a1.187,1.187,0,0,1,.305.712.8.8,0,0,1-.346.61,13.162,13.162,0,0,1-22.118-9.25,12.384,12.384,0,0,1,12.32-12.767,11.633,11.633,0,0,1,9.981,5.55,12.775,12.775,0,0,1,1.83,7.054c-.061,2.135-.651,2.419-2.907,2.46h-14.068a5.688,5.688,0,0,0,5.57,4.31,7.23,7.23,0,0,0,5.367-1.83c.224-.183.386-.325.488-.407A.78.78,0,0,1,1040.525,348.619Zm-11.547-7.461h9.86c-1.057-2.3-2.805-3.6-5.062-3.6A5.4,5.4,0,0,0,1028.978,341.158Z" transform="translate(-938.458 -289.859)" fill="#298871"/>
    </g>
  </g>
</svg>
