<svg xmlns="http://www.w3.org/2000/svg" width="20.588" height="20.588" viewBox="0 0 20.588 20.588"><path d="M10.294,0A10.294,10.294,0,1,0,20.588,10.294,10.306,10.306,0,0,0,10.294,0Zm-.6,5.053A14.074,14.074,0,0,1,7,4.675c.139-.328.289-.644.451-.942a5.209,5.209,0,0,1,2.242-2.4Zm0,1.207V9.691H5.923a15.159,15.159,0,0,1,.659-3.878A15.273,15.273,0,0,0,9.691,6.26Zm0,4.637v3.431a15.273,15.273,0,0,0-3.109.447A15.159,15.159,0,0,1,5.923,10.9Zm0,4.638v3.717a5.209,5.209,0,0,1-2.242-2.4c-.162-.3-.312-.614-.451-.942A14.072,14.072,0,0,1,9.691,15.535Zm1.206,0a14.074,14.074,0,0,1,2.693.378c-.139.328-.289.644-.451.942a5.209,5.209,0,0,1-2.242,2.4Zm0-1.207V10.9h3.767a15.159,15.159,0,0,1-.659,3.878A15.273,15.273,0,0,0,10.9,14.328Zm0-4.637V6.26a15.273,15.273,0,0,0,3.109-.447,15.159,15.159,0,0,1,.659,3.878Zm0-4.638V1.335a5.209,5.209,0,0,1,2.242,2.4c.162.3.312.614.451.942A14.074,14.074,0,0,1,10.9,5.053Zm3.3-1.9a9.158,9.158,0,0,0-.976-1.466,9.1,9.1,0,0,1,3.217,1.916,11.4,11.4,0,0,1-1.683.728A12.222,12.222,0,0,0,14.2,3.157Zm-7.812,0A12.221,12.221,0,0,0,5.83,4.335a11.415,11.415,0,0,1-1.683-.728A9.1,9.1,0,0,1,7.364,1.691,9.161,9.161,0,0,0,6.388,3.157ZM5.422,5.469a16.154,16.154,0,0,0-.706,4.222H1.227A9.045,9.045,0,0,1,3.289,4.51,12.407,12.407,0,0,0,5.422,5.469ZM4.716,10.9a16.152,16.152,0,0,0,.706,4.222,12.407,12.407,0,0,0-2.132.958A9.045,9.045,0,0,1,1.227,10.9ZM5.83,16.253a12.221,12.221,0,0,0,.558,1.178A9.168,9.168,0,0,0,7.364,18.9a9.1,9.1,0,0,1-3.217-1.916A11.4,11.4,0,0,1,5.83,16.253Zm8.37,1.178a12.221,12.221,0,0,0,.558-1.178,11.415,11.415,0,0,1,1.683.728A9.1,9.1,0,0,1,13.224,18.9,9.161,9.161,0,0,0,14.2,17.431Zm.966-2.312a16.154,16.154,0,0,0,.706-4.222h3.489A9.045,9.045,0,0,1,17.3,16.078,12.407,12.407,0,0,0,15.166,15.119Zm.706-5.428a16.152,16.152,0,0,0-.706-4.222A12.407,12.407,0,0,0,17.3,4.51a9.045,9.045,0,0,1,2.063,5.181Zm0,0"/></svg>