<?xml version="1.0" encoding="utf-8"?>
<!-- Generator: Adobe Illustrator 24.0.3, SVG Export Plug-In . SVG Version: 6.00 Build 0)  -->
<svg version="1.1" id="Calque_1" xmlns="http://www.w3.org/2000/svg" xmlns:xlink="http://www.w3.org/1999/xlink" x="0px" y="0px"
	 viewBox="0 0 84.4 84.4" style="enable-background:new 0 0 84.4 84.4;" xml:space="preserve">
<style type="text/css">
	.st0{fill:#1BA383;}
</style>
<path id="Tracé_114" class="st0" d="M42.3,84.4c-1.7,0-3.5-0.1-5.2-0.3c-2.8-0.5-4.9-2.9-4.9-5.7v-4c-0.1-0.6-0.5-1.1-1-1.3l-3-1.2
	c-0.1,0-1.1-0.5-1.7,0.2l-2.8,2.8c-2,2-5.2,2.2-7.5,0.4l-0.1-0.1c-2-1.7-6.6-6.6-6.8-6.8c-1.9-2.2-1.9-5.5,0.2-7.6l2.9-2.9
	c0.4-0.5,0.5-1.1,0.2-1.6l-1.2-3c0,0-0.5-1.1-1.3-1.1h-4c-2.9,0-5.3-2.1-5.7-5c-0.4-3.4-0.4-6.9,0.1-10.3c0.6-2.7,2.9-4.6,5.6-4.7
	c1.3-0.1,2.7-0.1,4,0c0.6-0.1,1.1-0.5,1.3-1l1.2-3c0.3-0.5,0.2-1.2-0.2-1.7l-2.8-2.8c-2-2.1-2.2-5.3-0.3-7.6
	c2.3-2.7,6.6-6.7,6.8-6.8l0.1-0.1c2.3-1.7,5.5-1.6,7.6,0.4l2.8,2.8c0.5,0.3,1.1,0.4,1.7,0.2c0.9-0.3,1.8-0.7,2.7-1.1l0.2-0.1l0,0
	c0,0,1.1-0.5,1.1-1.3V6c0.1-2.8,2.1-5.2,4.9-5.7c3.5-0.4,7-0.4,10.4,0c2.7,0.5,4.7,2.9,4.7,5.6c0.1,1.1,0.1,2.2,0,3.3
	c0,0.2,0,0.3,0,0.5c0.2,0.8,0.3,1.3,1,1.6l3.1,1.3c0.5,0.3,1.2,0.2,1.6-0.3c1.5-1.5,2.7-2.7,2.7-2.7c1.1-1,2.5-1.6,4-1.7h0
	c1.4,0,2.7,0.5,3.7,1.4l6.8,6.9c1.8,2.3,1.6,5.5-0.3,7.6c-1.9,1.9-2.5,2.6-2.8,2.8c-0.4,0.5-0.4,1.1-0.2,1.7C72.6,30.1,73,31,73,31
	l0.1,0.1c0.3,0.6,0.8,1,1.4,1c1.2,0.1,2.5,0.1,3.7,0h0.1h0.1c2.8,0.1,5.2,2.1,5.7,4.9l0,0c0.4,3.4,0.4,6.9,0,10.3
	c-0.6,2.6-2.8,4.6-5.5,4.8h-0.2h-4c-0.6,0-1.1,0.4-1.3,1c-0.8,2-1.2,3-1.2,3c-0.3,0.6-0.2,1.2,0.2,1.7c1.4,1.5,2.8,2.8,2.8,2.8
	c2,2,2.2,5.3,0.4,7.6l-0.1,0.2l-6.9,6.8c-2.3,1.8-5.5,1.7-7.6-0.3L57.9,72c-0.5-0.4-1.1-0.4-1.6-0.2l-3,1.2c0,0-1.1,0.5-1.1,1.3v4
	c0,2.8-2.1,5.2-4.9,5.7C45.7,84.3,44,84.4,42.3,84.4z M27.4,68.5c0.7,0,1.4,0.1,2.1,0.4l2.9,1.2c1.7,0.7,2.9,2.4,3,4.2v4
	c0.1,1.2,1,2.3,2.2,2.5c3.1,0.3,6.1,0.3,9.2,0c1.2-0.2,2.1-1.3,2.2-2.5v-3.9c0.1-1.9,1.3-3.6,3.1-4.3l3-1.2c1.7-0.8,3.8-0.4,5.2,0.9
	l2.8,2.8c0.9,0.8,2.3,0.9,3.3,0.1l6.5-6.5c0.8-1,0.7-2.3-0.2-3.2c0,0-1.4-1.3-2.8-2.8c-1.3-1.4-1.7-3.5-0.8-5.3l0,0
	c0,0,0.4-0.9,1.2-2.9c0.7-1.8,2.4-3,4.3-3h3.8c1.3,0,2.4-1,2.7-2.3c0.3-3,0.3-6,0-9l0,0c-0.2-1.2-1.3-2.2-2.5-2.2
	c-1.4,0.1-2.7,0.1-4.1,0c-1.9-0.2-3.5-1.3-4.2-3c-0.1-0.3-0.6-1.2-1.3-3c-0.7-1.7-0.3-3.7,0.9-5.1c0.1-0.1,0.6-0.5,2.8-2.8
	c0.8-0.9,0.9-2.3,0.1-3.3l-6.6-6.6l0,0c-0.4-0.3-0.9-0.4-1.4-0.4l0,0c-0.6,0-1.3,0.3-1.8,0.7l0,0c0,0-1.2,1.3-2.8,2.8
	c-1.4,1.4-3.5,1.7-5.3,0.8L52,14.3c-1.7-0.7-2.8-2.2-3-4c-0.1-0.5-0.1-0.9,0-1.4c0.1-0.9,0.1-1.8,0-2.8c0-1.4-1.1-2.5-2.4-2.7
	c-3-0.3-5.9-0.3-8.9,0c-1.3,0.2-2.2,1.3-2.3,2.6V10c-0.1,1.9-1.3,3.6-3,4.3c-1,0.5-2,0.9-3.1,1.3c-1.7,0.7-3.7,0.3-5.1-0.9l-2.8-2.8
	c-1-0.8-2.3-0.8-3.3-0.1c-0.6,0.6-4.5,4.1-6.4,6.5c-0.7,1-0.6,2.4,0.2,3.3l2.7,2.7c1.3,1.4,1.7,3.5,0.8,5.3l-1.2,2.9
	c-0.7,1.7-2.4,2.9-4.2,3H9.9l-0.2,0l0,0c-1.2-0.1-2.4-0.1-3.6,0c-1.4,0.1-2.2,0.8-2.7,2.4c-0.3,3-0.3,6,0.1,9
	C3.7,48.1,4.8,49,6.1,49H10c1.9,0.1,3.6,1.3,4.3,3.1l1.2,3c0.8,1.8,0.4,3.8-0.9,5.2L11.8,63c-0.9,0.9-0.9,2.3-0.1,3.2
	c0,0,4.6,4.8,6.4,6.4c0.9,0.8,2.3,0.8,3.2,0l2.9-2.9C25.1,68.9,26.2,68.5,27.4,68.5L27.4,68.5z M42.2,58.1
	c-8.7,0-15.8-7.1-15.8-15.8c0-8.7,7.1-15.8,15.8-15.8c8.7,0,15.8,7.1,15.8,15.8C58,51,50.9,58,42.2,58.1L42.2,58.1z M42.2,29.6
	c-7,0-12.6,5.6-12.6,12.6c0,7,5.6,12.6,12.6,12.6c7,0,12.6-5.6,12.6-12.6C54.8,35.2,49.2,29.6,42.2,29.6
	C42.2,29.6,42.2,29.6,42.2,29.6L42.2,29.6z"/>
</svg>
