<?xml version="1.0" encoding="utf-8"?>
<!-- Generator: Adobe Illustrator 24.0.3, SVG Export Plug-In . SVG Version: 6.00 Build 0)  -->
<svg version="1.1" id="Calque_1" xmlns="http://www.w3.org/2000/svg" xmlns:xlink="http://www.w3.org/1999/xlink" x="0px" y="0px"
	 viewBox="0 0 84.8 93" style="enable-background:new 0 0 84.8 93;" xml:space="preserve">
<style type="text/css">
	.st0{fill:#82BFA1;}
</style>
<g>
	<path class="st0" d="M66.3,42.4c0-13.2-10.7-23.9-23.9-23.9s-23.9,10.7-24,23.9c0,9.4,5.4,17.8,13.8,21.7v5.5H30
		c-0.8,0-1.5,0.7-1.5,1.5c0,0.8,0.7,1.5,1.5,1.5h2.2v2.5H30c-0.8,0-1.5,0.7-1.5,1.5c0,0.8,0.7,1.5,1.5,1.5h2.2v2.5H30
		c-0.8,0-1.5,0.7-1.5,1.5c0,0.8,0.7,1.5,1.5,1.5h2.2c0.4,5.2,4.8,9.4,10.2,9.4s9.7-4.2,10.1-9.4h2.3c0.9,0,1.6-0.7,1.6-1.5
		c0-0.8-0.7-1.5-1.5-1.5h-2.4v-2.5h2.3c0.9,0,1.6-0.7,1.6-1.5c0-0.8-0.7-1.5-1.5-1.5h-2.4v-2.5h2.3c0.9,0,1.6-0.7,1.6-1.5
		c0-0.8-0.7-1.5-1.5-1.5h-2.4v-5.5C60.9,60.1,66.3,51.7,66.3,42.4z M42.4,90c-3.7,0-6.8-2.8-7.2-6.4h14.3C49.2,87.2,46.1,90,42.4,90
		z M49.6,80.6H35.2v-2.5h14.4V80.6z M49.6,75.1H35.2v-2.5h14.4V75.1z M37.4,47.4h-2.6c-1.4,0-2.6-1.2-2.6-2.6c0-1.4,1.2-2.6,2.6-2.6
		c1.4,0,2.5,1.2,2.6,2.6V47.4z M44.5,69.6h-4.1V50.4h4.1V69.6z M47.5,69.6V50.4h2.6c3.1,0,5.6-2.5,5.6-5.6c0-3.1-2.5-5.6-5.6-5.6
		c-3.1,0-5.6,2.5-5.6,5.6v2.6h-4.1v-2.6c0-3.1-2.5-5.6-5.6-5.6c-3.1,0-5.6,2.5-5.6,5.6c0,3.1,2.5,5.6,5.6,5.6h2.6v19.2h-2.2v-6.5
		c0-0.6-0.3-1.2-0.9-1.4c-7.8-3.3-12.8-10.8-12.8-19.3c0-11.5,9.4-20.9,20.9-20.9s20.9,9.4,20.9,20.9c0,8.4-5,16-12.8,19.3
		c-0.5,0.3-0.9,0.8-0.9,1.4v6.5H47.5z M47.5,47.4v-2.6c0-1.4,1.2-2.6,2.6-2.6c1.4,0,2.6,1.2,2.6,2.6c0,1.4-1.2,2.6-2.6,2.6H47.5z"/>
	<path class="st0" d="M42.4,0C19,0,0,19,0,42.4c0,15.8,8.6,30.1,22.5,37.4c0.7,0.4,1.6,0.1,2-0.6c0.4-0.7,0.1-1.6-0.6-2
		C11,70.4,3,57,3,42.4C3,20.7,20.7,3,42.4,3s39.4,17.7,39.4,39.5c0,14.8-8.1,28.2-21.3,35c-0.7,0.4-1,1.3-0.6,2
		c0.2,0.5,0.8,0.8,1.3,0.8c0.2,0,0.4-0.1,0.6-0.2c14.2-7.3,23-21.8,23-37.7C84.8,19,65.8,0,42.4,0z"/>
</g>
</svg>
