<svg xmlns="http://www.w3.org/2000/svg" width="81.259" height="35.208" viewBox="0 0 81.259 35.208"><defs><style>.a{fill:#fff;}.b{fill:#1ba383;}.c{fill:#298871;}</style></defs><g transform="translate(-93.265 -67.416)"><g transform="translate(93.265 67.416)"><path class="a" d="M278.334,547.32c.118.029.236.058.355.084C278.611,547.266,278.6,547.278,278.334,547.32Z" transform="translate(-264.959 -512.628)"/><path class="a" d="M277.923,545.182l.026.007a1.547,1.547,0,0,1,.047-.193Z" transform="translate(-264.578 -510.497)"/><path class="a" d="M278.288,547.674h0Z" transform="translate(-264.916 -512.982)"/><path class="a" d="M283.256,548.85Z" transform="translate(-269.525 -514.073)"/><path class="b" d="M110.876,67.416a17.6,17.6,0,0,0-6.636,33.911,19.433,19.433,0,0,0,1.065-5.756h0c-13.663-7.117.827-21.628,11.1-23.767,6.548,6.413,7.169,28.307-6.315,25.527L115.65,88.5c.244-.293-.212-.735-.585-.818L111.491,86.5a.525.525,0,0,1-.348-.66l2.8-9.047c.184-.5-.148-.88-.538-.51l-7.65,10.894a.507.507,0,0,0,.232.839L110.8,89.5c.634.317.4.67.317.949L109.164,95.5l-.556,1.442-1.919,4.961a.042.042,0,0,1,0,.01,1.551,1.551,0,0,0-.047.193h0c.27-.042.276-.054.355.084h0a17.6,17.6,0,1,0,3.879-34.774Z" transform="translate(-93.265 -67.416)"/></g><g transform="translate(133.167 72.824)"><path class="b" d="M653.907,148.933c.02,2.814-1.73,4.352-4.131,4.337a4.649,4.649,0,0,1-2.92-1.011.262.262,0,0,1-.113-.186.375.375,0,0,1,.08-.186l.532-.772a.268.268,0,0,1,.226-.133.406.406,0,0,1,.226.08,3.635,3.635,0,0,0,2.142.585,2.13,2.13,0,0,0,2.175-2.222V149.4a3.227,3.227,0,0,1-2.528,1.137,4.009,4.009,0,0,1-4.024-4.085,4.163,4.163,0,0,1,4.025-4.157,3.45,3.45,0,0,1,2.614,1.171l.113-.753c.033-.24.106-.327.313-.327h1.031q.24,0,.24.279Zm-4.191-4.989a2.53,2.53,0,1,0,2.468,2.528,2.432,2.432,0,0,0-2.468-2.527Z" transform="translate(-645.572 -142.294)"/><path class="b" d="M783.847,142.753c0-.18.086-.273.253-.273h.918c.22,0,.346.04.393.3l.126.7a2.223,2.223,0,0,1,1.93-1.091,3.336,3.336,0,0,1,2.135.891.375.375,0,0,1,.147.259.3.3,0,0,1-.073.18l-.6.845a.2.2,0,0,1-.173.106.35.35,0,0,1-.2-.08,2.508,2.508,0,0,0-1.437-.519,1.636,1.636,0,0,0-1.6,1.829v4.463a.226.226,0,0,1-.259.266H784.1c-.166,0-.253-.086-.253-.266Z" transform="translate(-773.858 -142.38)"/><path class="b" d="M867.863,148.558a.3.3,0,0,1,.173-.06.17.17,0,0,1,.153.08l.652.8a.318.318,0,0,1,.08.193.262.262,0,0,1-.1.193,4.2,4.2,0,0,1-7.117-3,4.116,4.116,0,0,1,4.131-4.2,4.045,4.045,0,0,1,3.419,1.869,4.226,4.226,0,0,1,.605,2.328c-.033.639-.153.645-.652.652h-5.721a2.443,2.443,0,0,0,2.408,1.916,2.541,2.541,0,0,0,1.776-.625Zm-4.3-2.681h4.556a2.437,2.437,0,0,0-2.268-1.756A2.511,2.511,0,0,0,863.559,145.878Z" transform="translate(-846.09 -142.545)"/><path class="b" d="M993.889,148.558a.3.3,0,0,1,.173-.06.17.17,0,0,1,.153.08l.652.8a.318.318,0,0,1,.08.193.262.262,0,0,1-.1.193,4.2,4.2,0,0,1-7.117-3,4.116,4.116,0,0,1,4.131-4.2,4.045,4.045,0,0,1,3.419,1.869,4.225,4.225,0,0,1,.605,2.328c-.033.639-.153.645-.652.652h-5.721a2.443,2.443,0,0,0,2.408,1.916,2.54,2.54,0,0,0,1.776-.625Zm-4.3-2.681h4.557a2.437,2.437,0,0,0-2.268-1.756,2.511,2.511,0,0,0-2.289,1.756Z" transform="translate(-963.012 -142.545)"/><path class="b" d="M1119.991,150.7c0,.166-.173.273-.366.273h-1.178a.243.243,0,0,1-.273-.273v-7.609a.243.243,0,0,1,.273-.273h.865a.408.408,0,0,1,.379.327l.106.918a3.027,3.027,0,0,1,2.541-1.3,3.135,3.135,0,0,1,3.053,3.446v4.5c0,.18-.086.266-.253.266h-1.284a.238.238,0,0,1-.273-.266v-4.443a1.8,1.8,0,0,0-1.809-1.789,1.86,1.86,0,0,0-1.783,1.876Z" transform="translate(-1084.036 -142.721)"/><path class="c" d="M647.874,331.846a.266.266,0,0,1,.3-.286h1.35a.332.332,0,0,1,.293.24,2.665,2.665,0,0,1,.08.286l.14.545a2.96,2.96,0,0,1,2.375-1.157,3.885,3.885,0,0,1,3.865,4.151,3.928,3.928,0,0,1-3.832,4.184,3.018,3.018,0,0,1-2.129-.838v2.94a.251.251,0,0,1-.286.286h-1.856a.266.266,0,0,1-.3-.286Zm4.157,5.8a1.911,1.911,0,0,0,1.969-2,1.887,1.887,0,0,0-2-2.029,2.022,2.022,0,0,0-1.876,2.029,1.913,1.913,0,0,0,1.9,2Z" transform="translate(-647.707 -317.808)"/><path class="c" d="M780.132,331.572a4.183,4.183,0,1,1-2.969,1.216,4.181,4.181,0,0,1,2.969-1.216Zm-.033,6.206h.033a1.932,1.932,0,0,0,1.856-2.029,1.911,1.911,0,0,0-1.816-2.022h-.065a2.036,2.036,0,0,0-.008,4.051Z" transform="translate(-766.511 -317.899)"/><path class="c" d="M910.883,305.478l3.353,4.357a.375.375,0,0,1,.08.226.257.257,0,0,1-.279.259H911.92c-.18,0-.273-.065-.412-.279l-2.142-2.987-.745.772v2.222a.243.243,0,0,1-.273.273h-1.889a.243.243,0,0,1-.273-.273V300.07a.243.243,0,0,1,.273-.273h1.89a.243.243,0,0,1,.273.273v4.889l2.3-2.581a.544.544,0,0,1,.5-.206h1.889a.31.31,0,0,1,.346.286.242.242,0,0,1-.073.173Z" transform="translate(-887.36 -288.42)"/><path class="c" d="M1027.677,337.212a.233.233,0,0,1,.186.093l.818,1.131a.387.387,0,0,1,.1.233.262.262,0,0,1-.113.2,4.307,4.307,0,0,1-7.237-3.027,4.052,4.052,0,0,1,4.031-4.177,3.807,3.807,0,0,1,3.266,1.816,4.181,4.181,0,0,1,.6,2.308c-.02.7-.213.792-.951.8h-4.6A1.861,1.861,0,0,0,1025.6,338a2.366,2.366,0,0,0,1.756-.6c.073-.06.126-.106.16-.133A.255.255,0,0,1,1027.677,337.212Zm-3.778-2.441h3.226a1.793,1.793,0,0,0-1.656-1.178,1.767,1.767,0,0,0-1.57,1.178Z" transform="translate(-994.28 -317.985)"/></g></g></svg>