<svg xmlns="http://www.w3.org/2000/svg" width="113.688" height="49.259" viewBox="0 0 113.688 49.259">
  <g id="greenpoke_blanc" transform="translate(-14 -15.394)">
    <g id="Groupe_7" data-name="Groupe 7" transform="translate(14 15.394)">
      <path id="Tracé_25" data-name="Tracé 25" d="M278.334,547.331c.165.041.331.081.5.118C278.721,547.256,278.712,547.273,278.334,547.331Z" transform="translate(-259.621 -498.794)" fill="#fff"/>
      <path id="Tracé_26" data-name="Tracé 26" d="M277.923,545.256l.037.009a2.157,2.157,0,0,1,.066-.271Z" transform="translate(-259.252 -496.73)" fill="#fff"/>
      <path id="Tracé_27" data-name="Tracé 27" d="M278.288,547.674h0Z" transform="translate(-259.58 -499.136)" fill="#fff"/>
      <path id="Tracé_28" data-name="Tracé 28" d="M283.256,548.85Z" transform="translate(-264.045 -500.194)" fill="#fff"/>
      <path id="Tracé_29" data-name="Tracé 29" d="M117.905,67.416a24.629,24.629,0,0,0-9.284,47.445,27.188,27.188,0,0,0,1.491-8.053h0C91,96.85,111.268,76.548,125.637,73.557c9.161,8.973,10.03,39.6-8.835,35.714l7.782-12.36c.342-.41-.3-1.028-.819-1.144l-5-1.648a.735.735,0,0,1-.488-.923l3.913-12.658c.257-.693-.206-1.231-.753-.713l-10.7,15.241a.709.709,0,0,0,.324,1.174l6.74,2.079c.887.443.564.938.443,1.328l-2.732,7.062-.778,2.018-2.684,6.941a.059.059,0,0,1,0,.015,2.17,2.17,0,0,0-.066.271h0c.378-.059.387-.075.5.118h0a24.629,24.629,0,1,0,5.427-48.652Z" transform="translate(-93.265 -67.416)" fill="#fff"/>
    </g>
    <g id="Groupe_8" data-name="Groupe 8" transform="translate(69.826 22.961)">
      <path id="Tracé_30" data-name="Tracé 30" d="M657.234,151.582c.028,3.937-2.42,6.089-5.78,6.068a6.5,6.5,0,0,1-4.085-1.415.366.366,0,0,1-.158-.26.524.524,0,0,1,.112-.26l.744-1.079a.375.375,0,0,1,.316-.186.567.567,0,0,1,.316.112,5.086,5.086,0,0,0,3,.819,2.981,2.981,0,0,0,3.043-3.108v-.037a4.515,4.515,0,0,1-3.536,1.591,5.609,5.609,0,0,1-5.63-5.715,5.825,5.825,0,0,1,5.631-5.817,4.827,4.827,0,0,1,3.657,1.638l.158-1.053c.046-.335.149-.458.437-.458H656.9q.335,0,.335.391Zm-5.863-6.98a3.54,3.54,0,1,0,3.453,3.536,3.4,3.4,0,0,0-3.453-3.536Z" transform="translate(-645.572 -142.294)" fill="#fff"/>
      <path id="Tracé_31" data-name="Tracé 31" d="M783.847,142.9c0-.251.121-.381.354-.381h1.284c.307,0,.484.056.549.419l.177.977a3.11,3.11,0,0,1,2.7-1.526,4.667,4.667,0,0,1,2.988,1.247.525.525,0,0,1,.205.363.416.416,0,0,1-.1.251l-.837,1.182a.282.282,0,0,1-.242.149.49.49,0,0,1-.279-.112,3.509,3.509,0,0,0-2.01-.726A2.289,2.289,0,0,0,786.4,147.3v6.245a.317.317,0,0,1-.363.372H784.2c-.233,0-.353-.121-.353-.372Z" transform="translate(-769.871 -142.377)" fill="#fff"/>
      <path id="Tracé_32" data-name="Tracé 32" d="M870.321,150.95a.422.422,0,0,1,.242-.084.239.239,0,0,1,.214.112l.912,1.117a.445.445,0,0,1,.112.27.367.367,0,0,1-.14.27,5.878,5.878,0,0,1-9.958-4.2,5.758,5.758,0,0,1,5.78-5.873,5.66,5.66,0,0,1,4.783,2.615,5.913,5.913,0,0,1,.847,3.257c-.046.894-.214.9-.912.912h-8a3.417,3.417,0,0,0,3.369,2.68,3.555,3.555,0,0,0,2.485-.875ZM864.3,147.2h6.374a3.409,3.409,0,0,0-3.173-2.457A3.514,3.514,0,0,0,864.3,147.2Z" transform="translate(-839.859 -142.536)" fill="#fff"/>
      <path id="Tracé_33" data-name="Tracé 33" d="M996.347,150.95a.422.422,0,0,1,.242-.084.238.238,0,0,1,.214.112l.912,1.117a.444.444,0,0,1,.112.27.366.366,0,0,1-.14.27,5.877,5.877,0,0,1-9.958-4.2,5.758,5.758,0,0,1,5.779-5.873,5.659,5.659,0,0,1,4.783,2.615,5.911,5.911,0,0,1,.847,3.257c-.046.894-.214.9-.912.912h-8a3.418,3.418,0,0,0,3.369,2.68,3.554,3.554,0,0,0,2.485-.875Zm-6.022-3.751H996.7a3.409,3.409,0,0,0-3.173-2.457,3.514,3.514,0,0,0-3.2,2.457Z" transform="translate(-953.148 -142.536)" fill="#fff"/>
      <path id="Tracé_34" data-name="Tracé 34" d="M1120.717,153.866c0,.233-.242.381-.512.381h-1.648a.34.34,0,0,1-.382-.381V143.22a.34.34,0,0,1,.382-.381h1.21a.571.571,0,0,1,.531.458l.149,1.284a4.235,4.235,0,0,1,3.555-1.824c2.019-.028,4.318,1.591,4.272,4.821v6.3c0,.251-.121.372-.354.372h-1.8a.333.333,0,0,1-.382-.372v-6.217a2.518,2.518,0,0,0-2.531-2.5,2.6,2.6,0,0,0-2.494,2.625Z" transform="translate(-1070.412 -142.707)" fill="#fff"/>
      <path id="Tracé_35" data-name="Tracé 35" d="M647.874,332a.373.373,0,0,1,.419-.4h1.889a.464.464,0,0,1,.409.335,3.719,3.719,0,0,1,.112.4l.2.763a4.141,4.141,0,0,1,3.323-1.619,5.435,5.435,0,0,1,5.407,5.807,5.5,5.5,0,0,1-5.361,5.854,4.223,4.223,0,0,1-2.978-1.172v4.114a.351.351,0,0,1-.4.4h-2.6a.373.373,0,0,1-.419-.4Zm5.817,8.115a2.674,2.674,0,0,0,2.755-2.792,2.641,2.641,0,0,0-2.792-2.838,2.829,2.829,0,0,0-2.624,2.838,2.677,2.677,0,0,0,2.662,2.793Z" transform="translate(-647.641 -312.354)" fill="#fff"/>
      <path id="Tracé_36" data-name="Tracé 36" d="M781.81,331.572a5.852,5.852,0,1,1-4.154,1.7,5.849,5.849,0,0,1,4.154-1.7Zm-.046,8.683h.046a2.7,2.7,0,0,0,2.6-2.838,2.673,2.673,0,0,0-2.541-2.829h-.092a2.848,2.848,0,0,0-.011,5.667Z" transform="translate(-762.753 -312.442)" fill="#fff"/>
      <path id="Tracé_37" data-name="Tracé 37" d="M912.758,307.746l4.69,6.1a.523.523,0,0,1,.112.316.36.36,0,0,1-.391.363h-2.96c-.251,0-.381-.092-.577-.391l-3-4.179-1.042,1.079v3.108a.34.34,0,0,1-.381.381h-2.643a.34.34,0,0,1-.381-.381V300.18a.34.34,0,0,1,.381-.381h2.644a.34.34,0,0,1,.381.381v6.84l3.22-3.611a.76.76,0,0,1,.7-.288h2.643a.434.434,0,0,1,.484.4.338.338,0,0,1-.1.242Z" transform="translate(-879.848 -283.88)" fill="#fff"/>
      <path id="Tracé_38" data-name="Tracé 38" d="M1030.171,339.426a.327.327,0,0,1,.26.13l1.144,1.582a.542.542,0,0,1,.14.326.366.366,0,0,1-.158.279,6.025,6.025,0,0,1-10.125-4.235,5.669,5.669,0,0,1,5.64-5.845,5.325,5.325,0,0,1,4.569,2.541,5.848,5.848,0,0,1,.838,3.229c-.028.977-.3,1.107-1.331,1.126h-6.44a2.6,2.6,0,0,0,2.55,1.973,3.31,3.31,0,0,0,2.457-.838c.1-.084.177-.149.223-.186A.357.357,0,0,1,1030.171,339.426Zm-5.286-3.416h4.514a2.508,2.508,0,0,0-2.317-1.648,2.472,2.472,0,0,0-2.2,1.648Z" transform="translate(-983.445 -312.526)" fill="#fff"/>
    </g>
  </g>
</svg>
